<svg width="49" height="48" viewBox="0 0 49 48" fill="none" xmlns="http://www.w3.org/2000/svg">
<g id=" play-circle">
<path id="Icon" fill-rule="evenodd" clip-rule="evenodd" d="M23.1655 29.1992L28.8239 23.9992L23.1655 18.8012V29.1992ZM32.1899 26.3574L24.8535 33.0974C24.2109 33.6894 23.375 33.9994 22.5229 33.9994C22.0535 33.9994 21.5761 33.9034 21.1269 33.7094C19.8981 33.1774 19.1367 32.0394 19.1367 30.7394V17.2594C19.1367 15.9614 19.8981 14.8214 21.1269 14.2914C22.3879 13.7414 23.8524 13.9814 24.8555 14.9034L32.1899 21.6434C32.8567 22.2534 33.2374 23.1134 33.2374 23.9994C33.2374 24.8874 32.8567 25.7454 32.1899 26.3574ZM24.1727 3.9994C13.0653 3.9994 4.02878 12.9734 4.02878 23.9994C4.02878 35.0274 13.0653 43.9994 24.1727 43.9994C35.28 43.9994 44.3165 35.0274 44.3165 23.9994C44.3165 12.9734 35.28 3.9994 24.1727 3.9994Z" fill="white"/>
</g>
</svg>
