<svg width="37" height="36" viewBox="0 0 37 36" fill="none" xmlns="http://www.w3.org/2000/svg">
<g id=" skip-forward">
<path id="Icon" fill-rule="evenodd" clip-rule="evenodd" d="M24.1726 9C23.3387 9 22.6619 9.6705 22.6619 10.5V16.227C22.5908 16.155 22.5289 16.077 22.4473 16.011L14.7438 9.69C13.8237 8.937 12.5124 8.784 11.4065 9.3015C10.4275 9.7605 9.82013 10.671 9.82013 11.6805V24.3195C9.82013 25.329 10.4275 26.2395 11.4065 26.6985C11.8431 26.9025 12.3114 27.0015 12.7752 27.0015C13.4868 27.0015 14.1878 26.766 14.7438 26.3085L22.4488 19.989C22.5289 19.923 22.5908 19.845 22.6619 19.773V25.5C22.6619 26.3295 23.3387 27 24.1726 27C25.0066 27 25.6834 26.3295 25.6834 25.5V10.5C25.6834 9.6705 25.0066 9 24.1726 9Z" fill="white"/>
</g>
</svg>
