<svg width="37" height="36" viewBox="0 0 37 36" fill="none" xmlns="http://www.w3.org/2000/svg">
<g id=" skip-back">
<path id="Icon" fill-rule="evenodd" clip-rule="evenodd" d="M24.8528 9.3018C23.7439 8.7843 22.4326 8.9373 21.5155 9.6918L13.8105 16.0113C13.7304 16.0773 13.6685 16.1538 13.5974 16.2273V10.5003C13.5974 9.6708 12.9206 9.0003 12.0867 9.0003C11.2527 9.0003 10.5759 9.6708 10.5759 10.5003V25.5003C10.5759 26.3298 11.2527 27.0003 12.0867 27.0003C12.9206 27.0003 13.5974 26.3298 13.5974 25.5003V19.7718C13.6685 19.8453 13.7304 19.9233 13.8105 19.9893L21.5155 26.3103C22.0715 26.7663 22.7725 27.0018 23.4841 27.0018C23.9479 27.0018 24.4162 26.9013 24.8528 26.6988C25.8303 26.2398 26.4392 25.3293 26.4392 24.3198V11.6808C26.4392 10.6713 25.8303 9.7608 24.8528 9.3018Z" fill="white"/>
</g>
</svg>
