<svg width="25" height="24" viewBox="0 0 25 24" fill="none" xmlns="http://www.w3.org/2000/svg">
<g id=" Sync">
<path id="Icon" fill-rule="evenodd" clip-rule="evenodd" d="M21.8389 10.326C21.8316 10.3419 21.8243 10.3578 21.8175 10.374C21.8106 10.3908 21.8051 10.4082 21.7997 10.4257C21.7909 10.454 21.7821 10.4822 21.7671 10.507C21.7373 10.556 21.6984 10.5972 21.6593 10.6385C21.6482 10.6502 21.637 10.662 21.6261 10.674C21.6139 10.6865 21.6031 10.7003 21.5924 10.714C21.5773 10.7331 21.5623 10.7523 21.5435 10.768C21.4871 10.8137 21.4219 10.8455 21.357 10.8772C21.3523 10.8795 21.3477 10.8817 21.3431 10.884C21.3293 10.8906 21.3163 10.8989 21.3032 10.9073C21.2847 10.9191 21.2661 10.931 21.2454 10.938C21.1366 10.978 21.0208 11 20.9009 11C20.8465 11 20.7901 10.996 20.7347 10.986L16.4542 10.281C15.9052 10.191 15.5346 9.676 15.6252 9.131C15.7159 8.587 16.2336 8.214 16.7835 8.309L18.4393 8.581C17.1854 6.395 14.7913 5 12.1565 5C9.17617 5 6.55042 6.718 5.46567 9.375C5.30754 9.765 4.92984 10 4.532 10C4.4061 10 4.27819 9.977 4.1543 9.927C3.63862 9.72 3.38984 9.137 3.59934 8.625C4.99329 5.208 8.35229 3 12.1565 3C15.593 3 18.7163 4.87 20.2926 7.788L20.6642 5.815C20.767 5.273 21.2947 4.914 21.8396 5.018C22.3865 5.119 22.7471 5.642 22.6444 6.185L21.89 10.185C21.8803 10.236 21.8596 10.281 21.8389 10.326ZM18.7071 14.6252C18.9156 14.1122 19.5038 13.8662 20.0185 14.0732C20.5342 14.2802 20.783 14.8632 20.5735 15.3752C19.1795 18.7922 15.8205 21.0002 12.0164 21.0002C8.57981 21.0002 5.4565 19.1302 3.88024 16.2122L3.50758 18.1842C3.41794 18.6652 2.99492 19.0002 2.51852 19.0002C2.45708 19.0002 2.39463 18.9942 2.33219 18.9822C1.78528 18.8812 1.42571 18.3582 1.52844 17.8152L2.28283 13.8152C2.29049 13.7759 2.30744 13.7411 2.32447 13.706C2.33433 13.6858 2.34421 13.6655 2.35233 13.6442C2.36029 13.6243 2.36725 13.6037 2.37422 13.583C2.38928 13.5383 2.4044 13.4935 2.42988 13.4552C2.44475 13.4324 2.46418 13.4142 2.48374 13.3959C2.49598 13.3844 2.50828 13.3729 2.51952 13.3602C2.52839 13.35 2.53717 13.3397 2.54593 13.3295C2.59386 13.2734 2.64136 13.2178 2.70183 13.1772C2.70776 13.1729 2.71486 13.1703 2.72187 13.1678C2.72794 13.1656 2.73395 13.1634 2.73909 13.1602C2.83679 13.0972 2.94154 13.0482 3.05737 13.0232C3.06442 13.0216 3.07177 13.022 3.07909 13.0224C3.08536 13.0228 3.09161 13.0231 3.09765 13.0222C3.20844 13.0042 3.32024 12.9932 3.43808 13.0132L7.71866 13.7192C8.26758 13.8082 8.63823 14.3242 8.54758 14.8692C8.466 15.3582 8.03895 15.7052 7.55449 15.7052C7.5001 15.7052 7.4447 15.7012 7.38931 15.6912L5.73348 15.4192C6.98744 17.6052 9.38154 19.0002 12.0164 19.0002C14.9966 19.0002 17.6224 17.2822 18.7071 14.6252Z" fill="white"/>
<mask id="mask0_6_107" style="mask-type:luminance" maskUnits="userSpaceOnUse" x="1" y="3" width="22" height="19">
<path id="Icon_2" fill-rule="evenodd" clip-rule="evenodd" d="M21.8389 10.326C21.8316 10.3419 21.8243 10.3578 21.8175 10.374C21.8106 10.3908 21.8051 10.4082 21.7997 10.4257C21.7909 10.454 21.7821 10.4822 21.7671 10.507C21.7373 10.556 21.6984 10.5972 21.6593 10.6385C21.6482 10.6502 21.637 10.662 21.6261 10.674C21.6139 10.6865 21.6031 10.7003 21.5924 10.714C21.5773 10.7331 21.5623 10.7523 21.5435 10.768C21.4871 10.8137 21.4219 10.8455 21.357 10.8772C21.3523 10.8795 21.3477 10.8817 21.3431 10.884C21.3293 10.8906 21.3163 10.8989 21.3032 10.9073C21.2847 10.9191 21.2661 10.931 21.2454 10.938C21.1366 10.978 21.0208 11 20.9009 11C20.8465 11 20.7901 10.996 20.7347 10.986L16.4542 10.281C15.9052 10.191 15.5346 9.676 15.6252 9.131C15.7159 8.587 16.2336 8.214 16.7835 8.309L18.4393 8.581C17.1854 6.395 14.7913 5 12.1565 5C9.17617 5 6.55042 6.718 5.46567 9.375C5.30754 9.765 4.92984 10 4.532 10C4.4061 10 4.27819 9.977 4.1543 9.927C3.63862 9.72 3.38984 9.137 3.59934 8.625C4.99329 5.208 8.35229 3 12.1565 3C15.593 3 18.7163 4.87 20.2926 7.788L20.6642 5.815C20.767 5.273 21.2947 4.914 21.8396 5.018C22.3865 5.119 22.7471 5.642 22.6444 6.185L21.89 10.185C21.8803 10.236 21.8596 10.281 21.8389 10.326ZM18.7071 14.6252C18.9156 14.1122 19.5038 13.8662 20.0185 14.0732C20.5342 14.2802 20.783 14.8632 20.5735 15.3752C19.1795 18.7922 15.8205 21.0002 12.0164 21.0002C8.57981 21.0002 5.4565 19.1302 3.88024 16.2122L3.50758 18.1842C3.41794 18.6652 2.99492 19.0002 2.51852 19.0002C2.45708 19.0002 2.39463 18.9942 2.33219 18.9822C1.78528 18.8812 1.42571 18.3582 1.52844 17.8152L2.28283 13.8152C2.29049 13.7759 2.30744 13.7411 2.32447 13.706C2.33433 13.6858 2.34421 13.6655 2.35233 13.6442C2.36029 13.6243 2.36725 13.6037 2.37422 13.583C2.38928 13.5383 2.4044 13.4935 2.42988 13.4552C2.44475 13.4324 2.46418 13.4142 2.48374 13.3959C2.49598 13.3844 2.50828 13.3729 2.51952 13.3602C2.52839 13.35 2.53717 13.3397 2.54593 13.3295C2.59386 13.2734 2.64136 13.2178 2.70183 13.1772C2.70776 13.1729 2.71486 13.1703 2.72187 13.1678C2.72794 13.1656 2.73395 13.1634 2.73909 13.1602C2.83679 13.0972 2.94154 13.0482 3.05737 13.0232C3.06442 13.0216 3.07177 13.022 3.07909 13.0224C3.08536 13.0228 3.09161 13.0231 3.09765 13.0222C3.20844 13.0042 3.32024 12.9932 3.43808 13.0132L7.71866 13.7192C8.26758 13.8082 8.63823 14.3242 8.54758 14.8692C8.466 15.3582 8.03895 15.7052 7.55449 15.7052C7.5001 15.7052 7.4447 15.7012 7.38931 15.6912L5.73348 15.4192C6.98744 17.6052 9.38154 19.0002 12.0164 19.0002C14.9966 19.0002 17.6224 17.2822 18.7071 14.6252Z" fill="white"/>
</mask>
<g mask="url(#mask0_6_107)">
</g>
</g>
</svg>
